<?xml version="1.0" encoding="UTF-8"?>
<svg width="80px" height="80px" viewBox="0 0 80 80" version="1.1" xmlns="http://www.w3.org/2000/svg" xmlns:xlink="http://www.w3.org/1999/xlink">
    <title>ED36A351-65BF-477A-9341-621F1C43A408</title>
    <defs>
        <linearGradient x1="50%" y1="1.0079764%" x2="50%" y2="100%" id="linearGradient-1">
            <stop stop-color="#00c5fb" offset="0%"></stop>
            <stop stop-color="#00c5fb" offset="100%"></stop>
        </linearGradient>
    </defs>
    <g id="🖥-Wireframe-V3" stroke="none" stroke-width="1" fill="none" fill-rule="evenodd">
        <g id="00-04-404" transform="translate(-560.000000, -253.000000)" fill="url(#linearGradient-1)">
            <g id="404" transform="translate(496.000000, 173.000000)">
                <path d="M104,80 C126.09139,80 144,97.90861 144,120 C144,142.09139 126.09139,160 104,160 C81.90861,160 64,142.09139 64,120 C64,97.90861 81.90861,80 104,80 Z M103.812,131.316 C101.904,131.316 100.473,132.747 100.473,134.761 C100.473,136.828 101.904,138.312 103.812,138.312 C105.72,138.312 107.151,136.828 107.151,134.761 C107.151,132.747 105.72,131.316 103.812,131.316 Z M103.971,101 C97.399,101 93.212,104.816 93,111.547 L97.77,111.6 C97.929,107.996 99.996,106.194 103.441,106.194 C106.727,106.194 108.9,107.678 108.9,110.752 C108.9,113.564719 107.482833,115.153985 105.891628,116.77187 L105.507034,117.161353 C103.57372,119.117925 101.533,121.259947 101.533,125.751 L106.197,125.751 C106.197,118.596 114.571,118.225 114.571,109.851 C114.571,104.074 110.331,101 103.971,101 Z" id="404-sign"></path>
            </g>
        </g>
    </g>
</svg>