<svg width="16" height="16" viewBox="0 0 16 16" fill="none" xmlns="http://www.w3.org/2000/svg"><g clip-path="url(#clip0)"><path d="M9.76247 6.2364C9.57294 6.04575 9.36279 5.87675 9.13592 5.73249C8.53503 5.34772 7.83647 5.14326 7.12294 5.14326C6.13259 5.14141 5.18248 5.5349 4.48341 6.2364L1.09202 9.63046C0.394149 10.3297 0.0019074 11.277 0.00128251 12.2649C-2.97531e-05 14.3264 1.67005 15.9987 3.73155 16C4.72037 16.0034 5.66961 15.6118 6.36842 14.9122L9.16792 12.1127C9.21878 12.0622 9.24718 11.9934 9.24678 11.9218C9.24593 11.7746 9.12586 11.6559 8.97861 11.6568H8.87197C8.28708 11.6588 7.7074 11.5465 7.16562 11.3262C7.06579 11.2851 6.95107 11.3083 6.87502 11.3848L4.86203 13.4004C4.23696 14.0255 3.22352 14.0255 2.59844 13.4004C1.97337 12.7754 1.97337 11.7619 2.59844 11.1368L6.00317 7.73479C6.62775 7.111 7.63954 7.111 8.26411 7.73479C8.68503 8.13094 9.3416 8.13094 9.7625 7.73479C9.94359 7.55354 10.0534 7.31315 10.0718 7.05757C10.0913 6.75216 9.97861 6.45305 9.76247 6.2364Z" fill="#828282"></path><path d="M14.9052 1.09357C13.4474 -0.364198 11.0839 -0.364198 9.62616 1.09357L6.82932 3.88773C6.75252 3.9649 6.73037 4.08097 6.77333 4.18102C6.81579 4.28134 6.91502 4.34574 7.02394 4.34364H7.12258C7.70679 4.34258 8.28553 4.45578 8.82627 4.67693C8.9261 4.71801 9.04083 4.69483 9.11688 4.61828L11.1245 2.6133C11.7496 1.98822 12.763 1.98822 13.3881 2.6133C14.0132 3.23837 14.0132 4.25182 13.3881 4.87689L10.8872 7.3751L10.8659 7.3991L9.99138 8.26828C9.3668 8.89208 8.35501 8.89208 7.73044 8.26828C7.30951 7.87214 6.65294 7.87214 6.23205 8.26828C6.0498 8.45091 5.93992 8.69339 5.92276 8.95082C5.90327 9.25623 6.0159 9.55533 6.23205 9.77201C6.54065 10.0819 6.90171 10.3347 7.29852 10.5185C7.35451 10.5452 7.4105 10.5665 7.46649 10.5905C7.52248 10.6145 7.58112 10.6332 7.63711 10.6545C7.6931 10.6758 7.75175 10.6945 7.80774 10.7105L7.96505 10.7531C8.07169 10.7798 8.17836 10.8011 8.28765 10.8198C8.41931 10.8394 8.55192 10.8518 8.68492 10.8571H8.87155H8.88754L9.04751 10.8385C9.10616 10.8358 9.16749 10.8225 9.23682 10.8225H9.32746L9.51143 10.7958L9.59676 10.7798L9.75139 10.7478H9.78073C10.4356 10.5833 11.0337 10.2442 11.5111 9.76667L14.9051 6.37262C16.363 4.91485 16.363 2.55134 14.9052 1.09357Z" fill="#828282"></path></g><defs><clipPath id="clip0"><rect width="16" height="16" fill="white"></rect></clipPath></defs></svg>