<svg width="21" height="20" viewBox="0 0 21 20" fill="none" xmlns="http://www.w3.org/2000/svg">
<g clip-path="url(#clip0)">
<path d="M14.2584 1.6665H5.93087C3.63128 1.6665 1.76709 3.53198 1.76709 5.83317V14.1665C1.76709 16.4677 3.63128 18.3332 5.93087 18.3332H14.2584C16.558 18.3332 18.4222 16.4677 18.4222 14.1665V5.83317C18.4222 3.53198 16.558 1.6665 14.2584 1.6665Z" stroke="#777474" stroke-width="2" stroke-linecap="round" stroke-linejoin="round"/>
<path d="M13.4257 9.47476C13.5285 10.1683 13.4101 10.8766 13.0874 11.4989C12.7647 12.1213 12.2541 12.6259 11.6283 12.9412C11.0025 13.2564 10.2932 13.3661 9.60151 13.2547C8.90977 13.1433 8.27074 12.8165 7.77532 12.3207C7.2799 11.825 6.9533 11.1855 6.84199 10.4933C6.73068 9.80106 6.84032 9.09134 7.15532 8.46507C7.47032 7.83881 7.97464 7.32788 8.59654 7.00496C9.21844 6.68205 9.92626 6.56359 10.6193 6.66643C11.3263 6.77133 11.9807 7.10098 12.4861 7.60669C12.9914 8.11239 13.3209 8.76733 13.4257 9.47476Z" stroke="#777474" stroke-width="2" stroke-linecap="round" stroke-linejoin="round"/>
<path d="M14.6748 5.4165H14.6831" stroke="#777474" stroke-width="2" stroke-linecap="round" stroke-linejoin="round"/>
</g>
<defs>
<clipPath id="clip0">
<rect width="19.9861" height="20" fill="white" transform="translate(0.101562)"/>
</clipPath>
</defs>
</svg>
