<svg width="21" height="20" viewBox="0 0 21 20" fill="none" xmlns="http://www.w3.org/2000/svg">
<path d="M13.6575 6.6665C14.9827 6.6665 16.2536 7.19329 17.1906 8.13097C18.1277 9.06865 18.6541 10.3404 18.6541 11.6665V17.4998H15.3231V11.6665C15.3231 11.2245 15.1476 10.8006 14.8352 10.488C14.5229 10.1754 14.0993 9.99984 13.6575 9.99984C13.2158 9.99984 12.7922 10.1754 12.4798 10.488C12.1675 10.8006 11.992 11.2245 11.992 11.6665V17.4998H8.66101V11.6665C8.66101 10.3404 9.18743 9.06865 10.1245 8.13097C11.0615 7.19329 12.3324 6.6665 13.6575 6.6665V6.6665Z" stroke="#777474" stroke-width="2" stroke-linecap="round" stroke-linejoin="round"/>
<path d="M5.33004 7.5H1.99902V17.5H5.33004V7.5Z" stroke="#777474" stroke-width="2" stroke-linecap="round" stroke-linejoin="round"/>
<path d="M3.66453 4.99984C4.58437 4.99984 5.33004 4.25365 5.33004 3.33317C5.33004 2.4127 4.58437 1.6665 3.66453 1.6665C2.7447 1.6665 1.99902 2.4127 1.99902 3.33317C1.99902 4.25365 2.7447 4.99984 3.66453 4.99984Z" stroke="#777474" stroke-width="2" stroke-linecap="round" stroke-linejoin="round"/>
</svg>
