<svg width="21" height="18" viewBox="0 0 21 18" fill="none" xmlns="http://www.w3.org/2000/svg">
<path d="M19.655 1.21102C18.8575 1.77391 17.9746 2.20444 17.0402 2.48602C16.5386 1.90894 15.8721 1.49993 15.1307 1.31429C14.3893 1.12865 13.6088 1.17535 12.8948 1.44806C12.1808 1.72078 11.5677 2.20635 11.1384 2.83911C10.7092 3.47188 10.4845 4.2213 10.4947 4.98602V5.81935C9.03124 5.85732 7.58112 5.53253 6.27347 4.87389C4.96583 4.21525 3.84125 3.24321 2.9999 2.04435C2.9999 2.04435 -0.331116 9.54435 7.16368 12.8777C5.44864 14.0427 3.40559 14.6268 1.33439 14.5444C8.82919 18.711 17.9895 14.5444 17.9895 4.96102C17.9887 4.72889 17.9664 4.49735 17.9229 4.26935C18.7728 3.43059 19.3726 2.37161 19.655 1.21102V1.21102Z" stroke="#777474" stroke-width="2" stroke-linecap="round" stroke-linejoin="round"/>
</svg>
